<svg width="40" height="40" viewBox="0 0 40 40" fill="none" xmlns="http://www.w3.org/2000/svg">
<path d="M12.5018 30.4791L27.4828 15.4981L27.4828 25.3556C27.4816 25.6353 27.5359 25.9124 27.6424 26.171C27.7489 26.4296 27.9055 26.6646 28.1033 26.8624C28.3011 27.0601 28.536 27.2168 28.7947 27.3233C29.0533 27.4298 29.3304 27.484 29.6101 27.4829C30.1698 27.4812 30.7061 27.2581 31.1019 26.8624C31.4977 26.4666 31.7207 25.9303 31.7224 25.3706L31.7074 12.5019C31.7108 11.3799 31.269 10.3024 30.479 9.50572C29.6835 8.72485 28.6124 8.28888 27.4978 8.29226L14.6291 8.27728C14.3507 8.27826 14.0753 8.33406 13.8185 8.4415C13.5617 8.54894 13.3285 8.70591 13.1324 8.90345C12.9362 9.10099 12.7809 9.33523 12.6753 9.59279C12.5697 9.85035 12.5158 10.1262 12.5168 10.4046C12.5178 10.683 12.5736 10.9584 12.681 11.2152C12.7885 11.472 12.9454 11.7052 13.143 11.9013C13.3405 12.0975 13.5748 12.2528 13.8323 12.3584C14.0899 12.464 14.3657 12.5179 14.6441 12.5169L24.4866 12.5019L9.50563 27.4829C9.10831 27.8802 8.8851 28.4191 8.8851 28.981C8.8851 29.5429 9.10831 30.0817 9.50563 30.4791C9.90295 30.8764 10.4418 31.0996 11.0037 31.0996C11.5656 31.0996 12.1045 30.8764 12.5018 30.4791Z" fill="white"/>
</svg>
